<?xml version="1.0" encoding="utf-8"?>
<!-- Generator: Adobe Illustrator 25.4.1, SVG Export Plug-In . SVG Version: 6.00 Build 0)  -->
<svg version="1.1" id="Layer_1" xmlns="http://www.w3.org/2000/svg" xmlns:xlink="http://www.w3.org/1999/xlink" x="0px" y="0px"
	 viewBox="0 0 217.62 57.41" style="enable-background:new 0 0 217.62 57.41;" xml:space="preserve">
<style type="text/css">
	.st0{fill-rule:evenodd;clip-rule:evenodd;fill:#05CC87;}
	.st1{fill-rule:evenodd;clip-rule:evenodd;fill:#FFFFFF;}
</style>
<g>
	<path class="st0" d="M25.28,5.71l12.17,14.28l10.99-4.72c2.06-0.99,3.43-2.26,3.43-4.74c0-2.47-1.96-4.83-4.65-4.83H25.28
		L25.28,5.71z M0,0c0,15.5,0,31,0,46.5c0,4.49,2.73,8.42,6.71,9.99c5.52,2.17,11.19-0.63,13.57-5.96l3.89-8.7l14.45,12.23
		c4.53,3.84,11.25,4.87,15.64,0.49c4.3-4.3,3.61-11.34-0.68-15.64L41.04,24.2l9.32-3.91c5.25-2.2,8.14-8.05,5.96-13.57
		C54.76,2.73,50.82,0,46.34,0H0L0,0z M19.96,38.26L15.27,48.6c-1.3,2.69-3.72,4.29-6.67,3.09c-2.48-1.01-2.89-4.07-2.89-6.8
		c0-6.23,0-12.46,0-18.7L19.96,38.26L19.96,38.26z M5.71,18.46l38.12,32.27c1.82,1.84,4.85,1.8,6.67-0.02
		c1.83-1.83,1.83-4.86,0-6.69L17.79,5.71H5.71V18.46L5.71,18.46z"/>
	<path class="st1" d="M104.25,12.29c-2.41-2.39-5.3-3.6-8.7-3.6H80c-1.56,0-2.84,1.13-2.84,2.73v34.05c0,1.5,1.23,2.73,2.72,2.73
		c1.5,0,2.73-1.23,2.73-2.73V34.2h7.49l12.79,12.81c1.47,1.5,3.29,1.16,4.24,0.12c0.84-0.93,0.9-2.42-0.02-3.3l-10.06-9.74
		c6.09-0.76,10.75-5.79,10.82-11.97C107.93,18.44,106.7,14.72,104.25,12.29L104.25,12.29z M146.23,8.69c1.5,0,2.73,1.23,2.73,2.73
		v21.11c0,2.51-0.37,4.77-1.1,6.76c-0.73,1.99-1.79,3.68-3.16,5.08c-3.15,3.19-7.55,4.35-11.92,4.35c-4.39,0-8.77-1.17-11.95-4.35
		c-1.39-1.39-2.46-3.09-3.19-5.08c-0.73-1.99-1.1-4.24-1.1-6.76c0-2.71,0-5.42,0-8.12c0-4.33,0-8.66,0-12.99
		c0-1.5,1.23-2.73,2.73-2.73c1.5,0,2.73,1.23,2.73,2.73c0,6.85,0,13.69,0,20.53c0,3.75,0.95,6.6,2.84,8.56
		c1.89,1.95,4.54,2.93,7.95,2.93c3.4,0,6.05-0.98,7.92-2.93c1.87-1.95,2.81-4.81,2.81-8.56c0-6.85,0-13.69,0-20.53
		C143.5,9.92,144.73,8.69,146.23,8.69L146.23,8.69z M215.19,8.69c1.34,0,2.44,1.1,2.44,2.44c0,1.34-1.1,2.44-2.44,2.44
		c-6.92,0-13.85,0-20.77,0v12.36h17.69c1.34,0,2.44,1.1,2.44,2.44c0,1.34-1.1,2.44-2.44,2.44c-5.9,0-11.8,0-17.69,0v12.53
		c6.92,0,13.85,0,20.77,0c1.34,0,2.44,1.1,2.44,2.44c0,1.34-1.1,2.44-2.44,2.44c-7.93,0-15.86,0-23.78,0c-1.34,0-2.44-1.1-2.44-2.44
		c0-11.45,0-22.89,0-34.34c0-1.5,1.23-2.73,2.73-2.73C199.52,8.69,207.35,8.69,215.19,8.69L215.19,8.69z M159.2,45.47
		c0-11.35,0-22.7,0-34.05c0-1.5,1.23-2.73,2.72-2.73c1.5,0,2.73,1.23,2.73,2.73c0,10.63,0,21.27,0,31.9c5.05,0,10.09,0,15.14,0
		c1.34,0,2.44,1.1,2.44,2.44c0,1.34-1.1,2.44-2.44,2.44c-5.96,0-11.91,0-17.87,0C160.15,48.2,159.2,47.2,159.2,45.47L159.2,45.47z
		 M94.39,29.33H82.61V13.56h11.78c4.82,0,8,3.72,7.93,8.43C102.26,26.26,98.48,29.33,94.39,29.33L94.39,29.33z"/>
</g>
</svg>
